<?xml version="1.0" standalone="no"?>
<!DOCTYPE svg PUBLIC "-//W3C//DTD SVG 20010904//EN"
 "http://www.w3.org/TR/2001/REC-SVG-20010904/DTD/svg10.dtd">
<svg version="1.0" xmlns="http://www.w3.org/2000/svg"
 width="196.000000pt" height="34.000000pt" viewBox="0 0 196.000000 34.000000"
 preserveAspectRatio="xMidYMid meet">

<g transform="translate(0.000000,34.000000) scale(0.100000,-0.100000)"
fill="#000000" stroke="none">
<path d="M0 258 c1 -79 1 -82 16 -56 24 44 75 64 157 60 37 -3 67 -35 68 -74
1 -29 4 -25 20 27 11 33 17 70 14 82 -3 15 1 25 12 32 13 7 -26 10 -134 11
l-153 0 0 -82z"/>
<path d="M385 300 c-1 -38 0 -39 32 -38 57 2 77 -34 53 -97 -11 -28 -3 -78 10
-70 10 6 34 101 35 135 0 19 7 25 32 31 20 4 42 1 57 -6 15 -8 28 -9 34 -3 16
16 74 13 87 -5 10 -14 14 -14 26 -2 14 13 37 18 72 16 31 -2 41 -43 24 -95
-10 -29 -12 -46 -5 -46 6 0 8 -8 5 -19 -3 -14 0 -17 14 -14 11 3 23 -3 31 -16
7 -12 19 -21 27 -21 12 0 11 3 -1 18 -9 9 -19 40 -23 67 -4 28 -12 53 -17 56
-21 13 1 57 33 68 55 19 72 1 85 -93 9 -65 25 -38 17 30 -5 46 -3 53 15 63 21
11 52 6 52 -9 0 -18 46 15 48 34 0 12 11 29 23 39 20 16 4 17 -372 17 l-394 0
0 -40z"/>
<path d="M1294 327 c23 -17 17 -49 -12 -62 -12 -5 -22 -16 -22 -23 0 -7 -10
-16 -23 -21 -17 -7 -26 -23 -37 -62 -8 -30 -13 -62 -11 -72 2 -15 -7 -17 -63
-17 -60 0 -81 9 -56 25 5 3 17 30 26 60 14 43 15 58 6 67 -9 9 -12 8 -12 -6 0
-64 -59 -157 -124 -197 -31 -19 -23 -19 482 -19 l512 0 -1 138 0 137 -23 -75
c-15 -48 -20 -77 -13 -81 16 -11 0 -38 -28 -49 -16 -6 -34 -6 -50 0 -16 6 -34
6 -50 0 -34 -13 -73 3 -85 36 l-10 26 -23 -24 c-65 -70 -207 -56 -207 20 0 24
-1 24 -23 -9 -28 -42 -87 -65 -141 -55 -85 16 -103 91 -37 157 39 39 58 45
126 40 43 -4 64 -18 71 -47 6 -25 7 -25 21 -4 22 32 71 52 127 52 44 -1 54 -4
75 -30 l24 -29 27 30 c21 24 36 31 66 31 43 1 56 12 48 40 -4 10 0 22 7 27 8
5 -114 9 -285 9 -250 0 -297 -2 -282 -13z"/>
<path d="M1210 280 c0 -11 7 -20 15 -20 13 0 14 4 5 20 -6 11 -13 20 -15 20
-3 0 -5 -9 -5 -20z"/>
<path d="M120 194 c-7 -16 -14 -42 -17 -58 -10 -46 13 -23 27 29 14 51 6 73
-10 29z"/>
<path d="M1346 180 c-17 -44 -21 -74 -7 -66 10 7 36 95 29 102 -3 3 -13 -13
-22 -36z"/>
<path d="M1592 203 c-16 -30 -31 -93 -22 -93 10 0 44 99 37 107 -3 2 -10 -4
-15 -14z"/>
<path d="M1810 191 c-6 -16 -10 -40 -8 -52 2 -18 7 -10 20 29 17 55 9 72 -12
23z"/>
<path d="M346 152 c-9 -27 -14 -56 -10 -65 5 -15 -3 -17 -60 -17 -64 0 -76 5
-57 26 5 5 12 20 16 34 6 22 4 22 -13 -6 -40 -62 -153 -84 -202 -39 -20 18
-20 17 -20 -33 l0 -52 427 0 c332 0 424 3 415 12 -7 7 -12 22 -12 34 0 20 -4
22 -32 18 -20 -3 -40 0 -52 9 -17 12 -23 12 -46 -1 -31 -18 -78 -10 -87 15 -4
9 -1 36 6 61 6 25 9 47 7 50 -9 8 -28 -51 -29 -91 l-2 -38 -65 2 c-36 1 -77
-2 -92 -6 -40 -10 -77 2 -83 28 -3 12 1 41 9 65 8 23 11 42 6 42 -4 0 -16 -22
-24 -48z"/>
<path d="M729 173 c-5 -16 -12 -34 -14 -40 -2 -7 -1 -13 4 -13 4 0 15 18 24
40 8 22 11 40 6 40 -5 0 -14 -12 -20 -27z"/>
</g>
</svg>
