<svg id="Capa_1" enable-background="new 0 0 512 512" height="512"  viewBox="0 0 512 512" width="512" xmlns="http://www.w3.org/2000/svg"><g><path d="m256 151c-57.897 0-105 47.103-105 105s47.103 105 105 105 105-47.103 105-105-47.103-105-105-105zm0 180c-41.355 0-75-33.645-75-75s33.645-75 75-75 75 33.645 75 75-33.645 75-75 75z"/><path d="m497 30c-45.97 0-85.063 29.983-98.767 71.418-68.536-63.207-170.415-73.324-250.233-25.563v-30.224c0-8.284-6.716-15-15-15s-15 6.716-15 15v105.369h-29v-105.369c0-8.284-6.716-15-15-15s-15 6.716-15 15v105.369h-29v-105.369c0-8.284-6.716-15-15-15s-15 6.716-15 15v120.369c0 26.582 14.094 49.926 35.196 62.976l-9.566 203.041c-1.277 27.134 20.307 49.983 47.685 49.983 27.414 0 49.24-23.12 47.656-50.493l-.888-15.352c94.559 80.412 238.312 61.396 308.9-41.013l-4.535 58.635c-1.969 25.447 18.192 47.223 43.71 47.223 24.175 0 43.842-19.667 43.842-43.842v-392.158c0-8.284-6.716-15-15-15zm-464.364 151h82.728c-14.04 38.596-68.704 38.554-82.728 0zm40.678 271c-10.093 0-18.196-8.41-17.717-18.571l9.142-194.029c5.873.737 10.408.716 15.09.349l11.194 193.49c.585 10.153-7.46 18.761-17.709 18.761zm44.157-80.995-8.101-140.023c22.996-12.567 38.63-36.982 38.63-64.982v-54.067c75.196-56.565 182.715-45.768 245 27.247v145.82c0 8.284 6.716 15 15 15h22.64c-35.688 143.038-219.329 183.916-313.169 71.005zm364.529 66.153c0 7.633-6.209 13.842-13.842 13.842-8.027 0-14.426-6.812-13.8-14.909l11.597-149.935c.673-8.703-6.213-16.156-14.955-16.156h-28v-136c0-35.666 25.363-65.52 59-72.473z"/></g></svg>